<svg version="1.1" xmlns="http://www.w3.org/2000/svg" xmlns:xlink="http://www.w3.org/1999/xlink" width="278.27164" height="350.98779" viewBox="0,0,278.27164,350.98779"><g transform="translate(-100.86418,-4.5061)"><g data-paper-data="{&quot;isPaintingLayer&quot;:true}" fill-rule="nonzero" stroke="none" stroke-width="1" stroke-linecap="butt" stroke-linejoin="miter" stroke-miterlimit="10" stroke-dasharray="" stroke-dashoffset="0" style="mix-blend-mode: normal"><path d="M345.71213,63.6196c29.53722,29.53721 31.0918,219.9745 -1.55459,262.72573c-32.64639,42.75123 -146.13147,31.0918 -195.10106,11.65942c-48.96959,-19.43237 -34.20098,-155.45901 -34.20098,-213.75614c0,-58.29713 36.53287,-79.2841 79.28409,-85.50246c69.95655,-9.32754 127.4764,1.55459 151.57254,24.87344z" fill="#cfebe2"/><path d="M335.6073,93.93411c16.32319,22.54156 24.09614,181.10975 3.10918,216.08803c-20.98696,34.97828 -134.47204,38.08746 -175.66868,14.76861c-31.8691,-17.87779 -37.31016,-71.51115 -38.08746,-153.12713c-0.77729,-83.17057 27.98262,-102.60294 57.51984,-108.04401c115.03967,-23.31885 137.58123,6.99566 153.12713,30.31451z" fill="#ad2744"/><path d="M163.82509,324.79074c-4.66377,-2.33188 -8.55025,-6.21836 -12.43672,-10.10484c32.6464,-16.32319 117.37156,-34.97828 184.99623,-0.77729c-26.42803,31.8691 -133.69475,33.42369 -172.5595,10.88213z" fill="#991f3f"/><path d="M152.94295,291.36706c0,-4.29284 3.48011,-7.77295 7.77295,-7.77295c4.29285,0 7.77295,3.48011 7.77295,7.77295c0,4.29285 -3.48011,7.77295 -7.77295,7.77295c-4.29284,0 -7.77295,-3.4801 -7.77295,-7.77295z" fill="#cf2f51"/><path d="M313.67032,175.55009c0,-4.29284 3.4801,-7.77296 7.77295,-7.77296c4.29285,0 7.77296,3.48011 7.77296,7.77296c0,4.29285 -3.48011,7.77295 -7.77296,7.77295c-4.29284,0 -7.77295,-3.4801 -7.77295,-7.77295z" fill="#cf2f51"/><path d="M320.40682,225.6424c0,-4.29284 3.48011,-7.77295 7.77296,-7.77295c4.29285,0 7.77295,3.48011 7.77295,7.77295c0,4.29285 -3.4801,7.77295 -7.77295,7.77295c-4.29284,0 -7.77296,-3.48011 -7.77296,-7.77295z" fill="#cf2f51"/><path d="M272.73275,308.64026c0,-4.29284 3.4801,-7.77295 7.77295,-7.77295c4.29285,0 7.77295,3.48011 7.77295,7.77295c0,4.29285 -3.48011,7.77295 -7.77295,7.77295c-4.29284,0 -7.77295,-3.4801 -7.77295,-7.77295z" fill="#cf2f51"/><path d="M179.71642,307.77661c0,-4.29284 3.4801,-7.77295 7.77295,-7.77295c4.29285,0 7.77295,3.48011 7.77295,7.77295c0,4.29285 -3.48011,7.77295 -7.77295,7.77295c-4.29284,0 -7.77295,-3.48011 -7.77295,-7.77295z" fill="#cf2f51"/><path d="M292.07877,276.59845c0,-4.29284 3.4801,-7.77295 7.77295,-7.77295c4.29285,0 7.77295,3.48011 7.77295,7.77295c0,4.29285 -3.4801,7.77295 -7.77295,7.77295c-4.29284,0 -7.77295,-3.4801 -7.77295,-7.77295z" fill="#cf2f51"/><path d="M152.16565,141.34911c0,-4.29284 3.48011,-7.77295 7.77296,-7.77295c4.29285,0 7.77295,3.48011 7.77295,7.77295c0,4.29285 -3.4801,7.77295 -7.77295,7.77295c-4.29284,0 -7.77296,-3.4801 -7.77296,-7.77295z" fill="#cf2f51"/><path d="M249.32754,128.13509c0,-4.29284 3.4801,-7.77295 7.77295,-7.77295c4.29285,0 7.77295,3.4801 7.77295,7.77295c0,4.29285 -3.48011,7.77295 -7.77295,7.77295c-4.29284,0 -7.77295,-3.48011 -7.77295,-7.77295z" fill="#cf2f51"/><path d="M178.59369,256.38878c0,-4.29284 3.4801,-7.77295 7.77295,-7.77295c4.29285,0 7.77295,3.48011 7.77295,7.77295c0,4.29285 -3.48011,7.77295 -7.77295,7.77295c-4.29284,0 -7.77295,-3.4801 -7.77295,-7.77295z" fill="#cf2f51"/><path d="M231.44976,318.57238c0,-4.29284 3.4801,-7.77295 7.77295,-7.77295c4.29285,0 7.77295,3.48011 7.77295,7.77295c0,4.29285 -3.48011,7.77295 -7.77295,7.77295c-4.29284,0 -7.77295,-3.4801 -7.77295,-7.77295z" fill="#cf2f51"/><path d="M294.41066,134.35345c0,-4.29284 3.4801,-7.77295 7.77295,-7.77295c4.29285,0 7.77295,3.48011 7.77295,7.77295c0,4.29285 -3.4801,7.77295 -7.77295,7.77295c-4.29284,0 -7.77295,-3.4801 -7.77295,-7.77295z" fill="#cf2f51"/><path d="M207.61268,165.01339c0,-4.29284 3.4801,-7.77295 7.77295,-7.77295c4.29285,0 7.77295,3.48011 7.77295,7.77295c0,4.29285 -3.48011,7.77295 -7.77295,7.77295c-4.29284,0 -7.77295,-3.48011 -7.77295,-7.77295z" fill="#cf2f51"/><path d="M208.9082,128.91239c0,-4.29284 3.48011,-7.77295 7.77295,-7.77295c4.29285,0 7.77295,3.4801 7.77295,7.77295c0,4.29285 -3.48011,7.77295 -7.77295,7.77295c-4.29284,0 -7.77295,-3.48011 -7.77295,-7.77295z" fill="#cf2f51"/><path d="M341.82566,69.06067c8.55025,-2.33188 37.31017,17.87779 37.31017,17.87779c0,0 -18.65509,14.76861 -35.75558,22.54156c-16.32319,7.77295 -33.42369,3.10918 -45.86041,0.77729c-13.21402,-2.33188 -29.53722,1.55459 -39.64205,5.44106c-10.10484,4.66377 -13.99131,-0.77729 -31.8691,-4.66377c-17.87778,-3.88648 -50.52418,20.98697 -62.1836,6.21836c-11.65942,-14.7686 -19.43238,-16.32319 -38.08746,-12.43672c-18.65508,4.66377 -24.87344,-23.31885 -24.87344,-23.31885c6.21836,-3.88648 31.8691,-17.10049 31.8691,-17.10049c132.91745,18.65508 209.09237,4.66377 209.09237,4.66377z" fill="#e5e4e1"/><path d="M137.39705,67.50608l-31.86909,26.42803c-3.10918,-6.21836 -4.66378,-12.43672 -4.66378,-12.43672c5.44106,-3.10918 24.09615,-13.21402 29.53722,-16.32319z" fill="#e6818b"/><path d="M160.71591,76.05632l-29.53722,28.75992c-1.55459,0 -3.88647,0 -5.44106,0.77729c-3.88648,0.77729 -6.99565,0.7773 -10.10483,-0.77729l36.53286,-31.0918z" fill="#e6818b"/><path d="M185.58935,77.61091l-22.54156,38.86475c-3.10918,-4.66377 -6.21836,-6.99565 -9.32754,-9.32754l20.20968,-30.31451z" fill="#e6818b"/><path d="M197.24877,84.60657l11.65942,3.10918l-9.32754,28.75992c-4.66377,1.55459 -8.55025,3.10918 -13.21402,3.88648z" fill="#e6818b"/><path d="M226.00869,86.16116l11.65942,2.33188l-6.21836,24.87344c-1.55459,-0.77729 -3.10918,-0.77729 -5.44107,-1.55459c-2.33188,-0.77729 -3.88647,-0.7773 -6.21836,-0.7773z" fill="#e6818b"/><path d="M256.3232,85.38386h10.10483l1.5546,27.20533c-3.88648,0.77729 -6.99566,1.55459 -10.10484,3.10918c-0.77729,0 -1.55459,0.7773 -2.33189,0.7773z" fill="#e6818b"/><path d="M296.74254,111.0346c-1.55459,-0.77729 -2.33188,-0.77729 -3.88648,-0.77729l-1.55459,-28.75992l6.99565,-2.33188l5.44107,32.64639c-2.33188,0 -3.88648,-0.7773 -6.99565,-0.7773z" fill="#e6818b"/><path d="M325.50246,114.14378l-14.76861,-36.53286l7.77295,-2.33188l18.65508,37.31016c-4.66377,0.77729 -8.55025,1.55459 -11.65942,1.55459z" fill="#e6818b"/><path d="M362.81262,98.59788l-34.20098,-26.42803h8.55024l34.97827,20.20967c-2.33188,2.33188 -5.44106,3.88648 -9.32754,6.21836z" fill="#e6818b"/><path d="M131.17869,71.39255c0,0 -14.7686,-22.54156 -3.10918,-39.64205c11.65942,-17.10049 62.9609,-27.98262 126.6991,-27.20533c63.73819,0.77729 112.70779,14.76861 94.83,67.62468c0,0 -108.04402,45.86041 -218.41992,-0.77729z" fill="#d3d2cf"/><path d="M127.29222,33.30509c0,-0.7773 0.7773,-0.7773 0.7773,-1.55459c12.43672,-17.10049 62.9609,-27.98262 126.6991,-27.20533c42.75123,0.77729 78.5068,6.99566 91.72082,27.20533c-15.5459,6.21836 -43.52852,12.43672 -94.83,16.3232c-76.17491,6.21836 -109.5986,-6.21836 -124.36721,-14.7686z" fill="#e5e4e1"/><path d="M212.79468,5.32247c-21.76426,9.32754 -65.29279,28.75992 -66.84738,34.20098c-3.10918,9.32754 -2.33188,27.20533 -1.55459,36.53287c-3.88647,-1.55459 -8.55025,-3.10918 -12.43672,-4.66377c-0.7773,-11.65942 -1.55459,-31.8691 5.44107,-38.08746c6.21836,-6.21836 29.53721,-17.10049 46.6377,-24.09614c8.55024,-1.55459 18.65509,-2.33189 28.75992,-3.88648z" fill="#e6818b"/><path d="M180.92558,42.63263c-2.33188,8.55024 0,32.6464 1.55459,44.30582c-3.88647,-0.77729 -8.55025,-2.33189 -12.43672,-3.10918c-2.33188,-13.99131 -5.44107,-40.41934 2.33188,-48.19229c7.77295,-7.77295 47.415,-24.09615 66.07008,-31.0918c5.44107,0 10.88213,0 16.32319,0c1.55459,0 2.33188,0 3.88647,0c-21.76426,9.32754 -76.17491,31.8691 -77.7295,38.08746z" fill="#e6818b"/><path d="M301.40631,8.43165c-24.87344,10.88213 -83.94787,35.75557 -85.50246,41.97393c-3.10918,10.10484 -1.55459,33.42369 -0.77729,40.41934c-3.88647,0 -7.77296,0 -11.65943,-0.77729c-1.55459,-9.32754 -4.66377,-38.08746 3.88647,-46.6377c8.55024,-8.55025 60.62902,-30.31451 78.50681,-37.31016c5.44106,0.77729 10.10484,1.5546 15.5459,2.33189z" fill="#e6818b"/><path d="M253.99131,54.29206c-1.55459,6.99565 -0.77729,25.65074 0.7773,38.08746c-4.66377,0 -8.55025,0 -12.43672,0c-1.55459,-13.99131 -3.88647,-38.08746 3.10918,-45.08311c9.32754,-9.32754 61.40631,-29.53721 73.06573,-34.20098c3.88648,0.7773 6.99566,2.33189 10.10484,3.88648c-24.09614,9.32754 -73.84304,31.0918 -74.62033,37.31016z" fill="#e6818b"/><path d="M288.1923,87.71575c-3.88648,0.77729 -7.77295,1.55459 -11.65942,2.33188c-0.77729,-10.88213 0.7773,-34.97828 8.55025,-42.75123c4.66377,-4.66377 31.8691,-17.87778 51.30147,-26.42803c2.33188,2.33188 4.66377,3.88648 6.99565,6.21836c-21.76426,10.10483 -51.30148,21.76426 -52.07877,25.65074c-2.33188,8.55025 -3.88647,25.65074 -3.10918,34.97828z" fill="#e6818b"/><path d="M253.99131,4.54517c24.87344,0.77729 47.415,3.10919 64.51549,8.55025l-64.51549,-8.55025c0,0 0.7773,0 0,0z" fill="#e6818b"/><path d="M285.08312,6.87706c5.44106,0.77729 10.10483,1.55459 14.7686,2.33189c0.77729,0 0.77729,0 0.77729,0c-1.55459,0.7773 -2.33188,0.77729 -3.88647,1.55459l-15.5459,-2.33188c1.55459,-0.77729 3.10918,-1.55459 3.88648,-1.55459z" fill="#d1303e"/><path d="M226.00869,66.72878c61.40631,0 109.59861,-17.1005 125.9218,-23.31885c0.77729,3.10918 0.77729,6.21836 0.77729,9.32754c-21.76426,10.10484 -108.04401,44.30582 -226.97016,6.21836c-0.77729,-3.10918 -1.55459,-5.44106 -1.55459,-8.55024c13.99131,6.21836 46.63771,17.10049 101.82566,16.3232z" fill="#e6818b"/><path d="M290.52418,61.28771c-0.77729,3.10918 -1.55459,6.99566 -1.55459,10.88213c-3.88648,0 -8.55024,0.7773 -12.43672,1.55459c0,-3.88648 0.7773,-6.99565 1.55459,-10.88213c3.88648,-0.7773 7.77295,-1.5546 12.43672,-1.5546z" fill="#d1303e"/><path d="M252.43672,76.05632c-3.88647,0.77729 -8.55025,0.77729 -12.43672,0.77729c0,-3.88648 0,-6.99565 0,-10.10483c3.88647,0 8.55025,-0.77729 12.43672,-0.77729c0,3.10918 0,6.21836 0,10.10483z" fill="#d1303e"/><path d="M213.57197,76.05632c-3.88647,0 -8.55025,0 -12.43672,-0.77729c0,-3.10918 0,-5.44107 0,-8.55025c3.88647,0 8.55025,0 12.43672,0c0,3.10918 0,6.21836 0,9.32754z" fill="#d1303e"/><path d="M167.71156,62.84231c3.88647,0.7773 7.77295,0.77729 11.65942,1.55459c0.7773,3.10918 0.7773,5.44106 0.7773,7.77295c-3.88647,-0.77729 -7.77295,-1.55459 -12.43672,-2.33188c0,-2.33188 0,-4.66377 0,-6.99565z" fill="#d1303e"/><path d="M144.39271,64.3969c-4.66377,-1.55459 -8.55025,-2.33189 -12.43672,-3.88648c0,-2.33188 0,-4.66377 0,-6.99565c3.10918,0.7773 6.99565,2.33188 11.65942,3.88647c0,2.33188 0,4.66378 0.7773,6.99566z" fill="#d1303e"/><path d="M306.84738,85.38386c0,-10.10483 -0.77729,-34.97828 -9.32754,-34.97828c-10.10483,0 -143.02229,-7.77295 -173.3368,-9.32754c0.77729,-2.33188 0.77729,-3.88648 1.55459,-6.21836c34.20098,1.55459 172.55951,9.32754 178.77787,9.32754c10.88213,0 10.88213,29.53721 10.10483,38.86475c-2.33188,0.77729 -4.66377,1.55459 -7.77295,2.33188z" fill="#e6818b"/><path d="M303.7382,57.40124c3.10918,-0.7773 6.21836,-1.55459 9.32754,-2.33188c0.77729,3.88647 1.55459,6.99566 1.55459,10.88214c-2.33188,0.77729 -5.44106,1.55459 -8.55024,2.33188c-0.77729,-3.88648 -0.77729,-7.77296 -2.33188,-10.88214z" fill="#d1303e"/><path d="M283.52853,49.62829c0.77729,0 0.7773,-0.77729 1.55459,-1.55459c0.77729,-0.7773 3.10918,-2.33188 5.44106,-3.88647c8.55025,0.7773 13.99131,0.77729 14.7686,0.77729h0.7773c-4.66377,2.33188 -8.55025,3.88648 -10.88213,5.44107c-3.10918,-0.7773 -6.99565,-0.7773 -11.65942,-0.7773z" fill="#d1303e"/><path d="M259.43237,48.85099c-5.44107,0 -10.10483,-0.7773 -15.5459,-0.7773c0.7773,0 0.7773,-0.7773 0.7773,-0.7773c1.55459,-1.55459 4.66377,-3.88648 7.77295,-5.44107c6.21836,0 12.43672,0.7773 17.87779,0.7773c-4.66377,2.33188 -7.77296,3.88648 -10.88214,6.21836z" fill="#d1303e"/><path d="M205.02172,45.74181c0.7773,-0.7773 0.7773,-0.77729 1.55459,-1.55459c1.55459,-0.7773 3.88648,-2.33189 6.21837,-3.88648c6.21836,0 12.43672,0.7773 17.87778,0.7773c-3.88647,1.55459 -7.77295,3.88648 -10.10484,5.44107c-4.66377,-0.7773 -10.10484,-0.7773 -15.54591,-0.7773z" fill="#d1303e"/><path d="M185.58935,37.96886c-3.10918,2.33188 -5.44107,3.88647 -5.44107,4.66377c0,0.7773 0,0.7773 0,1.55459c-3.88647,0 -7.77295,-0.7773 -11.65942,-0.7773c0.7773,-2.33188 1.55459,-4.66377 3.10918,-6.21836c4.66377,0.7773 9.32754,0.7773 13.99131,0.7773z" fill="#d1303e"/><path d="M149.05648,37.19156c-1.55459,0.7773 -3.10918,2.33188 -3.10918,3.10918c-0.7773,0.7773 -0.7773,1.55459 -0.7773,2.33188c-4.66377,0 -8.55024,-0.7773 -12.43672,-0.7773c0.7773,-2.33188 1.55459,-4.66377 2.33188,-6.21836c4.66377,0 9.32754,0 13.99131,1.55459z" fill="#d1303e"/><path d="M334.05271,78.38821c-2.33188,0.77729 -5.44107,1.55459 -8.55025,2.33188c0,-8.55025 -1.55459,-39.64205 -7.77295,-41.19664c-27.20533,-7.77295 -167.11844,-12.43672 -184.21893,-13.21401c4.66377,-3.10918 10.88213,-6.21836 18.65508,-9.32754c47.415,3.88648 161.67738,13.99131 172.55951,16.32319c10.88213,2.33188 10.10483,33.42369 9.32754,45.08312z" fill="#e6818b"/><path d="M302.18361,36.41427c3.10918,-1.55459 6.99565,-3.10918 10.10483,-4.66377c6.21836,0.77729 10.10484,1.55459 11.65943,1.55459c1.55459,0 2.33188,0.77729 3.10918,1.55459c-3.10918,1.55459 -6.99566,3.10918 -10.10484,4.66377c-3.10918,-1.55459 -7.77295,-2.33188 -14.7686,-3.10918z" fill="#d1303e"/><path d="M268.75992,33.30509c3.88648,-1.55459 6.99565,-3.10918 10.88213,-4.66377c6.21836,0.77729 11.65943,0.7773 17.10049,1.55459c-3.10918,1.55459 -6.99566,3.10918 -10.10484,4.66377c-5.44106,-0.7773 -11.65942,-0.77729 -17.87778,-1.55459z" fill="#d1303e"/><path d="M230.67246,30.19591c3.88647,-1.55459 8.55025,-3.88648 12.43672,-5.44107c5.44107,0.77729 11.65942,0.7773 17.10049,1.55459c-3.88648,2.33188 -7.77295,3.88647 -11.65943,5.44106c-6.21836,0 -12.43672,-0.77729 -17.87778,-1.55459z" fill="#d1303e"/><path d="M217.45845,22.42296c-4.66377,1.55459 -9.32755,3.88648 -13.99132,6.21836c-6.21836,0 -12.43672,-0.77729 -18.65508,-0.77729c3.88647,-2.33188 9.32754,-4.66377 14.76861,-6.99566c5.44107,0.77729 11.65943,1.55459 17.87779,1.55459z" fill="#d1303e"/><path d="M146.72459,27.08673c4.66377,-3.10918 10.88214,-6.21836 17.10049,-9.32754c5.44107,0.77729 11.65942,0.7773 17.87778,1.55459c-6.21836,2.33188 -11.65942,5.44106 -17.10049,7.77295c-6.99565,0 -13.21402,0 -17.87779,0z" fill="#d1303e"/><path d="M323.17057,53.51476c3.10918,-0.7773 6.99566,-2.33188 10.10484,-3.10918c0.77729,3.10918 0.77729,6.99565 0.77729,10.10484c-3.10918,0.7773 -6.21836,2.33189 -10.10483,3.10918c0,-3.88647 -0.7773,-6.99566 -0.7773,-10.10484z" fill="#d1303e"/><path d="M344.15754,74.50173c1.55459,-38.08746 -6.99565,-47.415 -13.99131,-51.30147c-6.21836,-3.10918 -118.92614,-9.32754 -157.7909,-11.65942c10.10484,-2.33188 22.54156,-4.66377 35.75557,-5.44107c37.31016,3.10918 94.83001,7.77296 121.25804,11.65943c8.55025,3.88648 14.7686,9.32754 18.65508,15.5459c1.55459,12.43672 0.77729,30.31451 0.77729,38.86475c0,0.77729 -2.33188,1.55459 -4.66377,2.33188z" fill="#e6818b"/><path d="M342.60295,27.08673c-2.33188,1.55459 -3.88648,2.33189 -6.21836,3.10918c-1.55459,-3.10918 -3.88648,-4.66377 -6.21836,-6.21836c1.55459,-0.77729 3.88648,-1.55459 5.44107,-2.33188c1.55459,0.77729 3.10918,1.55459 3.88647,2.33188c0.77729,0.77729 0.7773,0.77729 1.55459,1.55459c0.77729,0.77729 1.55459,1.55459 1.55459,1.55459z" fill="#d1303e"/><path d="M311.51115,15.42731c5.44106,0 10.88214,0.7773 15.54591,1.55459c-2.33188,0.77729 -6.21837,2.33188 -9.32754,3.88647c-4.66377,-0.77729 -10.10484,-0.77729 -17.10049,-1.55459c3.88648,-1.55459 7.77295,-3.10918 10.88213,-3.88648z" fill="#d1303e"/><path d="M273.42369,11.54083c5.44106,0.7773 10.88213,0.7773 16.32319,2.33188c-3.10918,1.55459 -6.99565,3.10918 -10.88213,4.66377c-5.44106,-0.77729 -11.65943,-0.77729 -17.87779,-1.55459c3.88648,-2.33188 8.55025,-3.88648 12.43673,-5.44107z" fill="#d1303e"/><path d="M208.9082,6.09976c1.55459,0 2.33188,0 3.10918,0c-4.66377,1.55459 -9.32754,3.88648 -14.7686,6.21837c-6.99565,0 -13.21401,-0.7773 -18.65508,-0.7773c1.55459,-0.7773 3.88647,-1.55459 6.21836,-2.33188c-0.7773,0 -0.7773,0 0,0c6.99565,-1.55459 15.5459,-2.33189 24.09615,-3.10918z" fill="#d1303e"/><path d="M247.77295,9.20895c-3.88647,1.55459 -8.55025,3.10918 -13.21402,5.44107c-6.21836,0 -12.43672,-0.7773 -18.65508,-0.7773c5.44107,-2.33188 10.10484,-4.66377 14.76861,-6.21836c5.44107,0.77729 10.88213,1.55459 17.10049,1.55459z" fill="#d1303e"/><path d="M343.38025,47.2964c2.33188,-0.7773 4.66377,-1.55459 6.21836,-2.33188c0,3.10918 0,6.21836 0,9.32754c-2.33188,0.7773 -3.88648,1.55459 -6.21836,2.33188c0,-3.88647 -0.77729,-6.99565 0,-9.32754z" fill="#d1303e"/><path d="M296.74254,97.82058c-15.5459,-3.88648 -27.98263,3.88647 -43.52853,7.77295c-14.76861,3.88648 -11.65942,-3.10918 -31.86909,-3.88648c-20.20967,0 -25.65074,10.10483 -45.86041,9.32754c-20.20967,-0.77729 -26.42804,-19.43237 -41.97394,-17.10049c-11.65942,1.55459 -20.20967,-8.55025 -24.87344,-17.10049c3.10918,-1.55459 6.21836,-3.10918 9.32754,-4.66377c6.21836,8.55025 13.21402,11.65942 21.76426,10.88213c11.65942,0 31.0918,13.99131 38.08746,19.43238c6.99565,5.44106 31.0918,-10.88213 49.74688,-6.99565c18.65508,3.88648 27.20533,3.10918 40.41934,-3.10918c12.43672,-6.21836 45.86041,-3.88647 62.9609,-3.10918c11.65942,0.77729 22.54155,-9.32754 27.20532,-15.5459c3.88648,2.33188 6.99566,4.66377 10.10484,6.21836c-19.43237,19.43237 -56.74254,21.76426 -71.51114,17.87779z" fill="#e6818b"/><path d="M233.00435,104.03894c-2.33188,-0.77729 -6.21836,-1.55459 -11.65942,-1.55459l2.33188,-7.77295c1.55459,0 2.33188,0.7773 3.88647,0.7773c3.10918,0.77729 5.44107,1.55459 7.77295,1.55459z" fill="#d1303e"/><path d="M191.80771,100.92976c3.88647,-0.77729 8.55024,-2.33188 13.21401,-3.88648l-3.10918,8.55025c-3.88647,1.55459 -8.55025,3.10918 -13.21402,4.66377z" fill="#d1303e"/><path d="M156.05213,104.81624l7.77295,-11.65943c3.10918,2.33188 6.21836,3.88648 9.32754,6.21836l-6.21836,10.88213c-3.88647,-1.55459 -7.77295,-3.88647 -10.88214,-5.44106z" fill="#d1303e"/><path d="M149.83377,86.16116l-9.32754,9.32754c-2.33188,-0.77729 -4.66377,-0.7773 -6.99565,-0.7773c-1.55459,0.77729 -3.88647,0 -5.44106,0l12.43672,-10.88213c2.33188,-0.77729 6.21836,0.77729 9.32754,2.33188z" fill="#d1303e"/><path d="M108.63714,77.61091c0,-0.77729 0.77729,-0.7773 0.77729,-0.7773c1.55459,-0.77729 2.33189,-1.55459 3.10918,-1.55459c0.77729,-0.77729 0.77729,-0.7773 1.55459,-0.7773c0.77729,-0.77729 2.33189,-1.55459 3.10918,-2.33188c0.77729,0 0.77729,0 0.77729,0c1.55459,3.10918 3.88648,4.66377 6.21836,6.21836l-9.32754,7.77295c-2.33188,-2.33188 -4.66377,-6.21836 -6.21836,-8.55024z" fill="#d1303e"/><path d="M362.03533,86.16116c-3.10918,1.55459 -5.44107,3.10918 -8.55025,4.66377l-6.99565,-5.44106c2.33188,-1.55459 4.66377,-3.10918 6.21836,-4.66377z" fill="#d1303e"/><path d="M314.62032,88.49304c3.10918,0 6.99566,0.7773 10.10484,0.7773l4.66377,8.55025c-3.10918,0.77729 -6.99566,1.55459 -10.10484,1.55459z" fill="#d1303e"/><path d="M299.85172,88.49304l1.55459,10.88213c-1.55459,0 -3.10918,-0.77729 -4.66377,-0.77729c-1.55459,-0.77729 -2.33188,-0.77729 -3.88648,-0.77729l-0.77729,-9.32754c3.10918,0 5.44106,0 7.77295,0z" fill="#d1303e"/><path d="M256.3232,97.04329c3.10918,-0.77729 6.21836,-2.33188 10.10483,-3.88648l0.7773,9.32754c-3.88648,1.55459 -7.77295,3.10918 -11.65943,3.88647z" fill="#d1303e"/><path d="M128.06951,64.3969c0,0 40.41934,27.20533 111.15319,24.87344c70.73385,-2.33188 111.93049,-24.09615 111.93049,-24.09615c0,0 1.55459,0.7773 1.55459,5.44107c0,0 -69.17926,28.75991 -125.14451,24.09614c-81.61598,-6.99565 -101.82565,-26.42803 -101.82565,-26.42803z" fill="#c6aa8b"/><path d="M201.91254,205.43273c0,-4.29292 3.48002,-7.77295 7.77295,-7.77295c4.29292,0 7.77296,3.48002 7.77296,7.77295c0,4.29292 -3.48003,7.77295 -7.77296,7.77295c-4.29292,0 -7.77295,-3.48003 -7.77295,-7.77295z" fill="#cf2f51"/><path d="M272.73275,195.93248c0,-4.29292 3.48002,-7.77295 7.77295,-7.77295c4.29293,0 7.77295,3.48003 7.77295,7.77295c0,4.29292 -3.48003,7.77295 -7.77295,7.77295c-4.29293,0 -7.77295,-3.48002 -7.77295,-7.77295z" fill="#cf2f51"/><path d="M247.6866,251.20686c0,-4.29292 3.48002,-7.77295 7.77295,-7.77295c4.29293,0 7.77295,3.48003 7.77295,7.77295c0,4.29292 -3.48002,7.77295 -7.77295,7.77295c-4.29292,0 -7.77295,-3.48002 -7.77295,-7.77295z" fill="#cf2f51"/><path d="M144.91093,206.29646c0,-4.29292 3.48002,-7.77295 7.77295,-7.77295c4.29292,0 7.77295,3.48003 7.77295,7.77295c0,4.29292 -3.48003,7.77295 -7.77295,7.77295c-4.29292,0 -7.77295,-3.48003 -7.77295,-7.77295z" fill="#cf2f51"/></g></g></svg>